<svg xmlns="http://www.w3.org/2000/svg" width="15.728" height="15.676" viewBox="0 0 15.728 15.676">
  <g id="Group_7170" data-name="Group 7170" transform="translate(-21 -19)">
    <g id="Group_7140" data-name="Group 7140" transform="translate(28.237 19)">
      <g id="Group_7139" data-name="Group 7139">
        <path id="Path_11501" data-name="Path 11501" d="M.653,15.219H6.532a.653.653,0,0,0,.653-.653V2.809a.653.653,0,0,0-.653-.653H.653A.653.653,0,0,1,.653.85H6.532A1.962,1.962,0,0,1,8.491,2.809V14.566a1.962,1.962,0,0,1-1.959,1.959H.653a.653.653,0,1,1,0-1.306Z" transform="translate(0 -0.85)" fill="#a2a6b7"/>
      </g>
    </g>
    <g id="Group_7142" data-name="Group 7142" transform="translate(21 22.266)">
      <g id="Group_7141" data-name="Group 7141">
        <path id="Path_11502" data-name="Path 11502" d="M170.295,111.272l3.971-3.919a.653.653,0,1,1,.917.93l-2.838,2.8h7.6a.653.653,0,0,1,0,1.306h-7.6l2.838,2.8a.653.653,0,1,1-.917.93l-3.971-3.919a.653.653,0,0,1,0-.93Z" transform="translate(-170.1 -107.165)" fill="#a2a6b7"/>
      </g>
    </g>
  </g>
</svg>
