<svg xmlns="http://www.w3.org/2000/svg" width="42.875" height="30.013" viewBox="0 0 42.875 30.013">
    <defs>
        <style>
            .cls-2{fill:#a2a6b7}
        </style>
    </defs>
    <g id="file_5_" opacity="0.3" transform="translate(-78.065 -50.457)">
        <path id="Path_75" d="M137.8 176H97.072A1.072 1.072 0 0 0 96 177.072v27.869a1.072 1.072 0 0 0 1.072 1.072H137.8a1.072 1.072 0 0 0 1.072-1.072v-27.869A1.072 1.072 0 0 0 137.8 176zm-39.512 27.869l8.43-10.116 3.46 4.151.013.016 4.957 5.949zm38.443 0H117.94l-5.574-6.689 10.7-14.051 13.666 17.95zm0-6.328l-12.813-16.831a1.074 1.074 0 0 0-1.707 0l-11.253 14.781-3.415-4.1a1.073 1.073 0 0 0-1.648 0l-7.751 9.3v-22.55h38.588z" class="cls-2" transform="translate(-17.935 -125.543)"/>
        <path id="Path_76" d="M148.288 224.575a4.288 4.288 0 1 0-4.288-4.287 4.288 4.288 0 0 0 4.288 4.287zm0-6.431a2.144 2.144 0 1 1-2.144 2.144 2.144 2.144 0 0 1 2.144-2.144z" class="cls-2" transform="translate(-59.503 -160.184)"/>
    </g>
</svg>
