<svg xmlns="http://www.w3.org/2000/svg" width="45.695" height="20" viewBox="0 0 45.695 20">
  <g id="promoted_product" data-name="promoted product" transform="translate(-878 -499)">
    <g id="Group_139" data-name="Group 139" transform="translate(1 289)">
      <g id="Rectangle_161" data-name="Rectangle 161" transform="translate(902 210)" fill="#fff" stroke="#a2a6b7" stroke-width="0.5">
        <rect width="13" height="20" stroke="none"/>
        <rect x="0.25" y="0.25" width="12.5" height="19.5" fill="none"/>
      </g>
      <g id="Rectangle_219" data-name="Rectangle 219" transform="translate(904 221)" fill="#a2a6b7" stroke="#a2a6b7" stroke-width="0.5">
        <rect width="9" height="1" rx="0.5" stroke="none"/>
        <rect x="0.25" y="0.25" width="8.5" height="0.5" rx="0.25" fill="none"/>
      </g>
      <g id="Rectangle_220" data-name="Rectangle 220" transform="translate(904 223)" fill="#a2a6b7" stroke="#a2a6b7" stroke-width="0.5">
        <rect width="6" height="1" rx="0.5" stroke="none"/>
        <rect x="0.25" y="0.25" width="5.5" height="0.5" rx="0.25" fill="none"/>
      </g>
      <g id="Rectangle_221" data-name="Rectangle 221" transform="translate(904 225)" fill="#a2a6b7" stroke="#a2a6b7" stroke-width="0.5">
        <rect width="4" height="1" rx="0.5" stroke="none"/>
        <rect x="0.25" y="0.25" width="3.5" height="0.5" rx="0.25" fill="none"/>
      </g>
      <g id="Group_129" data-name="Group 129" transform="translate(826.091 161.898)">
        <path id="Path_75" data-name="Path 75" d="M104.857,176h-8.63a.227.227,0,0,0-.227.227v5.9a.227.227,0,0,0,.227.227h8.63a.227.227,0,0,0,.227-.227v-5.9A.227.227,0,0,0,104.857,176Zm-8.372,5.9,1.786-2.143.733.879,0,0,1.05,1.26Zm8.145,0h-3.981l-1.181-1.417,2.267-2.977,2.9,3.8Zm0-1.341L101.915,177a.228.228,0,0,0-.362,0l-2.384,3.132-.724-.868a.227.227,0,0,0-.349,0l-1.642,1.971v-4.778h8.175Z" transform="translate(-17.935 -125.544)" fill="#a2a6b7"/>
        <path id="Path_76" data-name="Path 76" d="M144.908,217.817a.908.908,0,1,0-.908-.908A.908.908,0,0,0,144.908,217.817Zm0-1.363a.454.454,0,1,1-.454.454A.454.454,0,0,1,144.908,216.454Z" transform="translate(-64.572 -164.408)" fill="#a2a6b7"/>
      </g>
    </g>
    <g id="Group_140" data-name="Group 140" transform="translate(-16 289)">
      <g id="Rectangle_161-2" data-name="Rectangle 161" transform="translate(902 210)" fill="#fff" stroke="#a2a6b7" stroke-width="0.5">
        <rect width="13" height="20" stroke="none"/>
        <rect x="0.25" y="0.25" width="12.5" height="19.5" fill="none"/>
      </g>
      <g id="Rectangle_219-2" data-name="Rectangle 219" transform="translate(904 221)" fill="#a2a6b7" stroke="#a2a6b7" stroke-width="0.5">
        <rect width="9" height="1" rx="0.5" stroke="none"/>
        <rect x="0.25" y="0.25" width="8.5" height="0.5" rx="0.25" fill="none"/>
      </g>
      <g id="Rectangle_220-2" data-name="Rectangle 220" transform="translate(904 223)" fill="#a2a6b7" stroke="#a2a6b7" stroke-width="0.5">
        <rect width="6" height="1" rx="0.5" stroke="none"/>
        <rect x="0.25" y="0.25" width="5.5" height="0.5" rx="0.25" fill="none"/>
      </g>
      <g id="Rectangle_221-2" data-name="Rectangle 221" transform="translate(904 225)" fill="#a2a6b7" stroke="#a2a6b7" stroke-width="0.5">
        <rect width="4" height="1" rx="0.5" stroke="none"/>
        <rect x="0.25" y="0.25" width="3.5" height="0.5" rx="0.25" fill="none"/>
      </g>
      <g id="Group_129-2" data-name="Group 129" transform="translate(826.091 161.898)">
        <path id="Path_75-2" data-name="Path 75" d="M104.857,176h-8.63a.227.227,0,0,0-.227.227v5.9a.227.227,0,0,0,.227.227h8.63a.227.227,0,0,0,.227-.227v-5.9A.227.227,0,0,0,104.857,176Zm-8.372,5.9,1.786-2.143.733.879,0,0,1.05,1.26Zm8.145,0h-3.981l-1.181-1.417,2.267-2.977,2.9,3.8Zm0-1.341L101.915,177a.228.228,0,0,0-.362,0l-2.384,3.132-.724-.868a.227.227,0,0,0-.349,0l-1.642,1.971v-4.778h8.175Z" transform="translate(-17.935 -125.544)" fill="#a2a6b7"/>
        <path id="Path_76-2" data-name="Path 76" d="M144.908,217.817a.908.908,0,1,0-.908-.908A.908.908,0,0,0,144.908,217.817Zm0-1.363a.454.454,0,1,1-.454.454A.454.454,0,0,1,144.908,216.454Z" transform="translate(-64.572 -164.408)" fill="#a2a6b7"/>
      </g>
    </g>
    <g id="left-arrow_1_" data-name="left-arrow (1)" transform="translate(776.521 506)">
      <g id="Group_124" data-name="Group 124" transform="translate(101.48 0)">
        <path id="Path_69" data-name="Path 69" d="M103.058,4l2.99-2.99a.438.438,0,0,0,0-.618l-.262-.262a.438.438,0,0,0-.618,0l-3.56,3.56a.441.441,0,0,0,0,.621l3.557,3.557a.438.438,0,0,0,.618,0l.262-.262a.438.438,0,0,0,0-.618Z" transform="translate(-101.48 0)" fill="#a2a6b7"/>
      </g>
    </g>
    <g id="left-arrow_1_2" data-name="left-arrow (1)" transform="translate(1025.176 513.993) rotate(180)">
      <g id="Group_124-2" data-name="Group 124" transform="translate(101.48 0)">
        <path id="Path_69-2" data-name="Path 69" d="M103.058,4l2.99-2.99a.438.438,0,0,0,0-.618l-.262-.262a.438.438,0,0,0-.618,0l-3.56,3.56a.441.441,0,0,0,0,.621l3.557,3.557a.438.438,0,0,0,.618,0l.262-.262a.438.438,0,0,0,0-.618Z" transform="translate(-101.48 0)" fill="#a2a6b7"/>
      </g>
    </g>
  </g>
</svg>
