<svg xmlns="http://www.w3.org/2000/svg" width="16.146" height="16.146" viewBox="0 0 16.146 16.146">
    <g>
        <g>
            <path d="M15.32 6.379l-1.133-.192a6.4 6.4 0 0 0-.455-1.1l.668-.934a.994.994 0 0 0-.108-1.285l-1.006-1.005a.99.99 0 0 0-.7-.293.98.98 0 0 0-.586.185l-.938.668a6.333 6.333 0 0 0-1.14-.469L9.738.834A1 1 0 0 0 8.753 0h-1.42a1 1 0 0 0-.985.833l-.2 1.147a6.242 6.242 0 0 0-1.1.462l-.928-.668a1 1 0 0 0-1.285.108l-1 1.006a1 1 0 0 0-.108 1.285l.675.948a6.251 6.251 0 0 0-.449 1.1l-1.12.189A1 1 0 0 0 0 7.4v1.42a1 1 0 0 0 .833.98l1.147.2a6.242 6.242 0 0 0 .462 1.1l-.664.924a.994.994 0 0 0 .107 1.276l1.005 1.005a.99.99 0 0 0 .7.293.98.98 0 0 0 .577-.186l.948-.675a6.381 6.381 0 0 0 1.066.438l.189 1.133a1 1 0 0 0 .985.833h1.428a1 1 0 0 0 .985-.833l.192-1.133a6.4 6.4 0 0 0 1.1-.455l.934.668a.99.99 0 0 0 .58.186.99.99 0 0 0 .7-.293l1.005-1.005A1 1 0 0 0 14.392 12l-.668-.938a6.353 6.353 0 0 0 .455-1.1l1.133-.189a1 1 0 0 0 .833-.985V7.364a.984.984 0 0 0-.825-.985zm-.078 2.4a.087.087 0 0 1-.074.088l-1.417.236a.453.453 0 0 0-.364.334 5.4 5.4 0 0 1-.587 1.413.456.456 0 0 0 .02.5l.833 1.174a.092.092 0 0 1-.01.115l-1.005 1.005a.086.086 0 0 1-.064.027.083.083 0 0 1-.051-.017l-1.17-.833a.456.456 0 0 0-.5-.02 5.4 5.4 0 0 1-1.413.587.448.448 0 0 0-.334.364l-.239 1.417a.087.087 0 0 1-.088.074H7.363a.087.087 0 0 1-.088-.074l-.236-1.417a.453.453 0 0 0-.334-.364 5.607 5.607 0 0 1-1.383-.567.467.467 0 0 0-.229-.061.444.444 0 0 0-.263.084l-1.181.84a.1.1 0 0 1-.049.016.09.09 0 0 1-.064-.027L2.53 12.67a.091.091 0 0 1-.01-.115l.83-1.164a.462.462 0 0 0 .02-.5 5.349 5.349 0 0 1-.594-1.41.462.462 0 0 0-.364-.334L.985 8.906a.087.087 0 0 1-.074-.088V7.4a.087.087 0 0 1 .074-.09l1.407-.236a.456.456 0 0 0 .368-.337 5.394 5.394 0 0 1 .576-1.417.45.45 0 0 0-.024-.492l-.84-1.181a.092.092 0 0 1 .01-.115l1.006-1.005a.086.086 0 0 1 .064-.027.083.083 0 0 1 .051.017l1.164.83a.462.462 0 0 0 .5.02 5.349 5.349 0 0 1 1.41-.594.462.462 0 0 0 .334-.364L7.252.983A.087.087 0 0 1 7.34.908h1.42a.087.087 0 0 1 .088.074l.236 1.407a.456.456 0 0 0 .337.368 5.475 5.475 0 0 1 1.447.594.456.456 0 0 0 .5-.02l1.164-.836a.1.1 0 0 1 .051-.017.09.09 0 0 1 .064.027l1.005 1.005a.091.091 0 0 1 .01.115l-.833 1.17a.456.456 0 0 0-.02.5 5.4 5.4 0 0 1 .582 1.405.448.448 0 0 0 .364.334l1.417.239a.087.087 0 0 1 .074.088v1.42z" transform="translate(0 -.001) translate(0 .001) translate(0 -.001)"/>
            <path d="M139.584 136a3.484 3.484 0 1 0 3.484 3.484 3.486 3.486 0 0 0-3.484-3.484zm0 6.058a2.574 2.574 0 1 1 2.574-2.574 2.575 2.575 0 0 1-2.574 2.575z" transform="translate(0 -.001) translate(0 .001) translate(-131.509 -131.414)"/>
        </g>
    </g>
</svg>
