<svg xmlns="http://www.w3.org/2000/svg" width="13.202" height="13.202" viewBox="0 0 13.202 13.202">
    <defs>
        <style>
            .cls-1{fill:#fff}
        </style>
    </defs>
    <g id="shuttle_1_">
        <path id="Path_38" d="M3.358 138.268l-1.144.088a1.021 1.021 0 0 0-.778.458l-1.319 1.995A.707.707 0 0 0 .6 141.9l1.047.162a9.378 9.378 0 0 1 1.711-3.794z" class="cls-1" transform="translate(0 -134.703)"/>
        <path id="Path_39" d="M226.682 383.476l.162 1.047a.706.706 0 0 0 1.089.482l2-1.319a1.02 1.02 0 0 0 .458-.778l.088-1.144a9.377 9.377 0 0 1-3.797 1.712z" class="cls-1" transform="translate(-220.837 -371.921)"/>
        <path id="Path_40" d="M95.083 240.207a.666.666 0 0 0 .109-.009 7.579 7.579 0 0 0 1.57-.445l-4.3-4.3a7.576 7.576 0 0 0-.445 1.57.675.675 0 0 0 .19.587l2.4 2.4a.677.677 0 0 0 .476.197z" class="cls-1" transform="translate(-89.632 -229.377)"/>
        <path id="Path_41" d="M131.893 5.853a10.428 10.428 0 0 0 1.037-5.2.678.678 0 0 0-.64-.64c-.164-.009-.359-.015-.579-.015a10.218 10.218 0 0 0-4.619 1.053 10.507 10.507 0 0 0-4.179 4.271.388.388 0 0 1 .036.031L127.59 10a.388.388 0 0 1 .031.036 10.507 10.507 0 0 0 4.272-4.183zm-4.473-3.062a1.934 1.934 0 1 1-.566 1.367 1.936 1.936 0 0 1 .566-1.367z" class="cls-1" transform="translate(-119.744)"/>
        <path id="Path_42" d="M306.071 118.274a1.16 1.16 0 1 0-.34-.82 1.162 1.162 0 0 0 .34.82z" class="cls-1" transform="translate(-297.848 -113.295)"/>
        <path id="Path_43" d="M.691 345a.385.385 0 0 0 .273-.113l1.263-1.263a.387.387 0 0 0-.547-.547l-1.262 1.264a.387.387 0 0 0 .273.66z" class="cls-1" transform="translate(-.297 -334.121)"/>
        <path id="Path_44" d="M3.091 387.959a.387.387 0 0 0-.547 0l-2.427 2.428a.387.387 0 1 0 .547.547l2.428-2.428a.387.387 0 0 0 0-.547z" class="cls-1" transform="translate(-.004 -377.845)"/>
        <path id="Path_45" d="M91.442 432.84l-1.262 1.26a.387.387 0 1 0 .547.547l1.263-1.263a.387.387 0 1 0-.547-.547z" class="cls-1" transform="translate(-87.744 -421.569)"/>
    </g>
</svg>
