<svg xmlns="http://www.w3.org/2000/svg" width="20.453" height="20.453" viewBox="0 0 20.453 20.453">
    <defs>
        <style>
            .cls-1{fill:#03a9f4}
        </style>
    </defs>
    <g id="shuttle_1_">
        <path id="Path_38" d="M5.2 138.268l-1.77.132a1.581 1.581 0 0 0-1.2.709L.182 142.2a1.1 1.1 0 0 0 .746 1.686l1.622.251a14.528 14.528 0 0 1 2.65-5.869z" class="cls-1" transform="translate(0 -132.745)"/>
        <path id="Path_39" d="M226.682 384.416l.251 1.622a1.094 1.094 0 0 0 1.686.746l3.091-2.044a1.581 1.581 0 0 0 .709-1.2l.137-1.772a14.528 14.528 0 0 1-5.874 2.648z" class="cls-1" transform="translate(-217.627 -366.514)"/>
        <path id="Path_40" d="M96.774 242.82a1.033 1.033 0 0 0 .169-.014 11.743 11.743 0 0 0 2.433-.69l-6.668-6.668a11.737 11.737 0 0 0-.69 2.433 1.046 1.046 0 0 0 .294.91l3.721 3.721a1.049 1.049 0 0 0 .741.308z" class="cls-1" transform="translate(-88.329 -226.043)"/>
        <path id="Path_41" d="M136.825 9.068a16.156 16.156 0 0 0 1.607-8.052 1.05 1.05 0 0 0-.992-.992c-.255-.014-.556-.024-.9-.024a15.83 15.83 0 0 0-7.156 1.631 16.278 16.278 0 0 0-6.475 6.618.6.6 0 0 1 .056.049l7.19 7.19a.6.6 0 0 1 .049.056 16.278 16.278 0 0 0 6.621-6.476zM129.9 4.324a3 3 0 1 1-.878 2.118 3 3 0 0 1 .878-2.118z" class="cls-1" transform="translate(-118.003)"/>
        <path id="Path_42" d="M306.258 119.362a1.8 1.8 0 1 0-.527-1.271 1.8 1.8 0 0 0 .527 1.271z" class="cls-1" transform="translate(-293.518 -111.648)"/>
        <path id="Path_43" d="M.9 346.119a.6.6 0 0 0 .424-.176l1.956-1.956a.6.6 0 1 0-.847-.847L.48 345.1a.6.6 0 0 0 .42 1.019z" class="cls-1" transform="translate(-.293 -329.264)"/>
        <path id="Path_44" d="M4.788 388.021a.6.6 0 0 0-.847 0l-3.762 3.761a.6.6 0 1 0 .847.847l3.761-3.761a.6.6 0 0 0 .001-.847z" class="cls-1" transform="translate(-.004 -372.353)"/>
        <path id="Path_45" d="M92.2 432.9l-1.956 1.956a.6.6 0 0 0 .847.847l1.956-1.956a.6.6 0 1 0-.847-.847z" class="cls-1" transform="translate(-86.469 -415.441)"/>
    </g>
</svg>
