<svg xmlns="http://www.w3.org/2000/svg" width="45.695" height="22.543" viewBox="0 0 45.695 22.543">
  <g id="slide_show" data-name="slide show" transform="translate(-635 -2172.457)">
    <g id="left-arrow_1_" data-name="left-arrow (1)" transform="translate(533.521 2180)">
      <g id="Group_124" data-name="Group 124" transform="translate(101.48 0)">
        <path id="Path_69" data-name="Path 69" d="M103.058,4l2.99-2.99a.438.438,0,0,0,0-.618l-.262-.262a.438.438,0,0,0-.618,0l-3.56,3.56a.441.441,0,0,0,0,.621l3.557,3.557a.438.438,0,0,0,.618,0l.262-.262a.438.438,0,0,0,0-.618Z" transform="translate(-101.48 0)" fill="#a2a6b7"/>
      </g>
    </g>
    <g id="left-arrow_1_2" data-name="left-arrow (1)" transform="translate(782.176 2187.993) rotate(180)">
      <g id="Group_124-2" data-name="Group 124" transform="translate(101.48 0)">
        <path id="Path_69-2" data-name="Path 69" d="M103.058,4l2.99-2.99a.438.438,0,0,0,0-.618l-.262-.262a.438.438,0,0,0-.618,0l-3.56,3.56a.441.441,0,0,0,0,.621l3.557,3.557a.438.438,0,0,0,.618,0l.262-.262a.438.438,0,0,0,0-.618Z" transform="translate(-101.48 0)" fill="#a2a6b7"/>
      </g>
    </g>
    <g id="file_5_" data-name="file (5)" transform="translate(565.936 2122)">
      <path id="Path_75" data-name="Path 75" d="M122.792,176h-26.1a.687.687,0,0,0-.687.687v17.861a.687.687,0,0,0,.687.687h26.1a.687.687,0,0,0,.687-.687V176.687A.687.687,0,0,0,122.792,176ZM97.467,193.861l5.4-6.483,2.217,2.66.009.01,3.177,3.813Zm24.638,0H110.061l-3.572-4.287,6.857-9.005,8.759,11.5Zm0-4.056-8.212-10.787a.688.688,0,0,0-1.094,0l-7.212,9.473-2.189-2.627a.687.687,0,0,0-1.056,0l-4.968,5.961V177.374H122.1Z" transform="translate(-17.935 -125.543)" fill="#a2a6b7"/>
      <path id="Path_76" data-name="Path 76" d="M146.748,221.5A2.748,2.748,0,1,0,144,218.748,2.748,2.748,0,0,0,146.748,221.5Zm0-4.122a1.374,1.374,0,1,1-1.374,1.374A1.374,1.374,0,0,1,146.748,217.374Z" transform="translate(-61.813 -162.109)" fill="#a2a6b7"/>
    </g>
    <g id="Group_125" data-name="Group 125" transform="translate(1)">
      <rect id="Rectangle_209" data-name="Rectangle 209" width="4" height="2" rx="1" transform="translate(649 2193)" fill="#a2a6b7"/>
      <rect id="Rectangle_210" data-name="Rectangle 210" width="4" height="2" rx="1" transform="translate(655 2193)" fill="#a2a6b7"/>
      <rect id="Rectangle_211" data-name="Rectangle 211" width="4" height="2" rx="1" transform="translate(661 2193)" fill="#a2a6b7"/>
    </g>
  </g>
</svg>
