<svg xmlns="http://www.w3.org/2000/svg" width="9.375" height="11.538" viewBox="0 0 9.375 11.538">
  <g id="trash" transform="translate(-48)">
    <path id="Path_11522" data-name="Path 11522" d="M56.473,1.442H54.49V1.082A1.082,1.082,0,0,0,53.408,0H51.966a1.082,1.082,0,0,0-1.082,1.082v.361H48.9a.9.9,0,0,0-.9.9v.721a.361.361,0,0,0,.361.361h8.653a.361.361,0,0,0,.361-.361V2.344A.9.9,0,0,0,56.473,1.442Zm-4.868-.361a.361.361,0,0,1,.361-.361h1.442a.361.361,0,0,1,.361.361v.361H51.606Z" fill="#a6a6a6"/>
    <path id="Path_11523" data-name="Path 11523" d="M73.477,184a.113.113,0,0,0-.113.118l.3,6.243a1.08,1.08,0,0,0,1.08,1.03h5.476a1.08,1.08,0,0,0,1.08-1.03l.3-6.243a.113.113,0,0,0-.113-.118Zm5.445.9a.361.361,0,1,1,.721,0v4.687a.361.361,0,0,1-.721,0Zm-1.8,0a.361.361,0,1,1,.721,0v4.687a.361.361,0,0,1-.721,0Zm-1.8,0a.361.361,0,1,1,.721,0v4.687a.361.361,0,0,1-.721,0Z" transform="translate(-24.793 -179.854)" fill="#a6a6a6"/>
  </g>
</svg>
