<svg xmlns="http://www.w3.org/2000/svg" width="10.558" height="13" viewBox="0 0 10.558 13">
    <g>
        <path d="M222.7 154.7a.3.3 0 0 0-.3.3v5.754a.3.3 0 1 0 .609 0V155a.3.3 0 0 0-.309-.3zm0 0" transform="translate(.003 .001) translate(-215.631 -149.995)"/>
        <path d="M104.7 154.7a.3.3 0 0 0-.3.3v5.754a.3.3 0 1 0 .609 0V155a.3.3 0 0 0-.309-.3zm0 0" transform="translate(.003 .001) translate(-101.223 -149.995)"/>
        <path d="M.861 3.869v7.5a1.68 1.68 0 0 0 .447 1.158A1.5 1.5 0 0 0 2.4 13h5.76a1.5 1.5 0 0 0 1.088-.47 1.68 1.68 0 0 0 .447-1.158v-7.5a1.163 1.163 0 0 0-.3-2.287H7.833V1.2A1.2 1.2 0 0 0 6.627 0h-2.7a1.2 1.2 0 0 0-1.209 1.2v.381H1.16a1.163 1.163 0 0 0-.3 2.287zm7.294 8.521H2.4a.964.964 0 0 1-.925-1.02V3.9h7.606v7.474a.964.964 0 0 1-.925 1.02zM3.327 1.2a.587.587 0 0 1 .6-.594h2.7a.587.587 0 0 1 .6.594v.381h-3.9zm-2.167.99h8.232a.548.548 0 1 1 0 1.1H1.16a.548.548 0 1 1 0-1.1zm0 0" transform="translate(.003 .001)"/>
        <path d="M163.7 154.7a.3.3 0 0 0-.3.3v5.754a.3.3 0 1 0 .609 0V155a.3.3 0 0 0-.309-.3zm0 0" transform="translate(.003 .001) translate(-158.427 -149.995)"/>
    </g>
</svg>
